<svg xmlns="http://www.w3.org/2000/svg" version="1.1" xmlns:xlink="http://www.w3.org/1999/xlink" xmlns:svgjs="http://svgjs.dev/svgjs" width="1000" height="707" viewBox="0 0 1000 707"><g transform="matrix(1,0,0,1,-0.6060606060606233,0.000011863233794429107)"><svg viewBox="0 0 396 280" data-background-color="#8abe53" preserveAspectRatio="xMidYMid meet" height="707" width="1000" xmlns="http://www.w3.org/2000/svg" xmlns:xlink="http://www.w3.org/1999/xlink"><g id="tight-bounds" transform="matrix(1,0,0,1,0.2400000000000091,0.000004698310362982738)"><svg viewBox="0 0 395.52 280" height="280" width="395.52"><g><svg viewBox="0 0 395.52 280" height="280" width="395.52"><g><svg viewBox="0 0 395.52 280" height="280" width="395.52"><g><svg viewBox="0 0 395.52 280" height="280" width="395.52"><g><svg viewBox="0 0 395.52 280" height="280" width="395.52"><g transform="matrix(1,0,0,1,104.53504196836558,79.24346131426442)"><svg viewBox="0 0 186.44991606326883 121.51307737147116" height="121.51307737147116" width="186.44991606326883"><g><svg xmlns="http://www.w3.org/2000/svg" xmlns:xlink="http://www.w3.org/1999/xlink" xmlns:xodm="http://www.corel.com/coreldraw/odm/2003" xml:space="preserve" version="1.1" style="shape-rendering:geometricPrecision;text-rendering:geometricPrecision;image-rendering:optimizeQuality;" viewBox="305.1529541015625 10656.9794921875 59377.94921875 38697.77734375" x="0" y="0" fill-rule="evenodd" clip-rule="evenodd" height="121.51307737147116" width="186.44991606326883" class="icon-o-0" data-fill-palette-color="accent" id="o-0"><g fill="#ffffff" data-fill-palette-color="accent"><path class="" d="M37130.49 31727.68c0 220.91-179.09 400-400 400-220.91 0-400-179.09-400-400l0-1652.43c0-220.91 179.09-400 400-400 220.91 0 400 179.09 400 400l0 1652.43z m-15582.94-21046.28c220.91 0 400 179.09 400 400 0 220.91-179.09 400-400 400l-13622.73 0c-220.91 0-400-179.09-400-400 0-220.91 179.09-400 400-400l13622.73 0z m-3710.31 1816.06c138.07 0 250 111.93 250 250 0 138.07-111.93 250-250 250l-13930.69 0c-138.07 0-250-111.93-250-250 0-138.07 111.93-250 250-250l13930.69 0z m24313.79 500c-138.07 0-250-111.93-250-250 0-138.07 111.93-250 250-250l13930.69 0c138.07 0 250 111.93 250 250 0 138.07-111.93 250-250 250l-13930.69 0z m-18496.82 1785.41l-22064.4 0c-132.87 0-253.95 54.65-341.98 142.67-88.02 88.02-142.67 209.11-142.67 341.97l0 12087.15c0 8.68-0.31 17.3-0.85 25.84 6.58 123.2 60.31 235.71 143.58 319.22 85.79 86.04 204.17 139.62 334.76 139.62 10.86 0 21.62 0.45 32.27 1.3l4646.08-38.05c444.97-3.65 771.96 33.95 1036.95 196.32 294.98 180.75 462.42 467.47 546.98 943.16l308.99 1738.05c21.57 121.35 68.63 227.6 137.5 314.08 69.16 86.85 162.41 156.74 276.04 205.01 114.05 48.44 229.14 67.15 339.36 56.67 110.37-10.5 219.97-50.61 322.88-119.73l4605.63-3093.33c127.03-85.33 255.68-147.7 390.12-188.37 133.65-40.44 274.85-59.73 427.75-59.14l9001.01 34.88 0-13047.32z m0 13844.2l-9001.01-34.88c-68.67-0.26-133.53 8.83-196.49 27.88-62.13 18.79-120.72 47.03-177.62 85.25l-4605.63 3093.33c-214.13 143.82-448.98 227.9-691.64 250.99-242.79 23.09-489.4-15.19-726.86-116.05-237.92-101.08-436.8-251.96-588.54-442.51-152.04-190.92-254.74-418.8-300-673.46l-308.99-1738.05c-40.62-228.53-94.15-349.8-175.1-399.4-110.93-67.97-314.91-83.16-615.07-80.7l-4646.5 38.05c-12.54 1.19-25.25 1.82-38.11 1.82-350.23 0-668.63-144.7-900.38-377.12-222.34-223-363.76-528.45-374.86-865.01-1.48-13.98-2.25-28.18-2.25-42.55l0-12087.15c0-353.69 144.41-674.95 377.05-907.59 232.65-232.64 553.92-377.05 907.6-377.05l22064.4 0 0-1990.13c0-367.74 150.16-701.78 392.07-943.69 241.9-241.91 575.94-392.07 943.68-392.07l10804.79 0c367.74 0 701.77 150.16 943.68 392.07 241.9 241.9 392.06 575.94 392.06 943.69l0 1102.47c0 220.91-179.09 400-400 400-220.91 0-400-179.09-400-400l0-1102.47c0-146.92-60.39-280.78-157.68-378.07-97.29-97.29-231.16-157.69-378.06-157.69l-10804.79 0c-146.9 0-280.77 60.39-378.06 157.69-97.29 97.29-157.69 231.17-157.69 378.07l0 16787.39c334.57-620.51 763.4-1182.9 1267.37-1667.53 1210.25-1163.82 2852.13-1880.54 4658.41-1880.54 220.91 0 400 179.09 400 400 0 220.91-179.09 400-400 400-1593 0-3039.84 630.96-4105.29 1655.54-1064.14 1023.33-1748.87 2438.49-1820.49 4009.41l0 30.67c0 146.9 60.39 280.77 157.69 378.06 97.29 97.3 231.16 157.69 378.06 157.69 11.29 0 22.46 0.49 33.52 1.41l2080.96-8.92c19.69-0.08 36.18-3 49.28-8.67 11.53-4.99 24.26-14.81 38.02-29.37 3.63-3.86 7.33-7.6 11.07-11.28 6.97-9.31 12.45-19.38 16.41-30.13 5.3-14.38 7.49-31.02 6.53-49.72-1.08-21.11-2.25-52.26-3.5-95.77l-2.83-97.92c0-865.88 351.01-1649.83 918.49-2217.32 567.48-567.48 1351.43-918.49 2217.31-918.49 733.2 0 1408.89 253.42 1944.49 677.76 546.42 432.94 945.17 1042.91 1108.63 1742.34 149.05 637.73 148.77 1264.73 8.79 1858.33-141.25 598.98-424.52 1161.77-839.87 1665.11-498.05 603.54-1142.68 1177.4-1781 1745.65-1155.52 1028.67-2288.87 2037.61-2233.74 2918.9 0.46 7.86 0.67 15.67 0.67 23.44l0.89 0 0 1806.18c0 146.9 60.4 280.77 157.69 378.06 97.29 97.29 231.15 157.68 378.07 157.68l2238.39 0c146.9 0 280.76-60.39 378.05-157.68 97.29-97.29 157.68-231.16 157.68-378.06l0.04-1072.49c-57.39-1142.05 983.13-2211.57 2096.08-3355.28 1158.59-1190.62 2404.51-2470.99 2314.98-3782.8-14.66-220.05 151.83-410.34 371.88-425 220.05-14.66 410.34 151.83 425 371.88 113.64 1665.18-1261.36 3078.21-2539.98 4392.18-986.98 1014.26-1909.65 1962.59-1870.37 2758.4 1.55 14.3 2.37 28.83 2.37 43.54l0 1069.57c0 367.74-150.16 701.78-392.06 943.68-241.9 241.9-575.93 392.06-943.67 392.06l-2238.39 0c-367.75 0-701.79-150.16-943.69-392.06-241.91-241.91-392.07-575.94-392.07-943.68l0-1806.18 0.48 0c-62.17-1257.68 1206.67-2387.48 2500.44-3539.22 620.36-552.27 1246.86-1109.99 1696.64-1655.03 335.61-406.7 564.07-859.64 677.37-1340.11 112.11-475.41 111.75-980.05-8.79-1495.81-122.13-522.59-418.58-977.17-824.27-1298.6-397.3-314.77-901.24-502.76-1450.73-502.76-645.05 0-1229.02 261.44-1651.69 684.11-422.66 422.67-684.11 1006.65-684.11 1651.7 0 59.43-0.47 69.46-0.29 76.04 0.4 14.25 1.63 40.73 3.5 77.03 6.63 128.91-11.3 251.06-53.41 365.34-37.69 102.28-95.14 197.56-172.01 285.02-7.56 9.69-15.62 19.14-24.21 28.27-87.78 92.82-189.36 164.23-303.66 213.75-112.73 48.82-233.69 73.74-361.78 74.29l-2080.69 8.92c-12.15 1.11-24.46 1.71-36.91 1.71-367.74 0-701.78-150.16-943.68-392.07-241.91-241.9-392.07-575.94-392.07-943.68l0-3100.61z m14786.52-17145.67c-220.91 0-400-179.09-400-400 0-220.91 179.09-400 400-400l13622.71 0c220.91 0 400 179.09 400 400 0 220.91-179.09 400-400 400l-13622.71 0z m-4862.36 2501.47l24820.1 0c353.69 0 674.95 144.41 907.59 377.05 232.64 232.64 377.05 553.9 377.05 907.59l0 12087.15c0 14.37-0.77 28.57-2.25 42.55-11.1 336.56-152.52 642.01-374.86 865.01-231.73 232.42-550.14 377.12-900.37 377.12-12.86 0-25.57-0.63-38.11-1.82l-4646.5-38.05c-300.16-2.46-504.15 12.73-615.08 80.7-80.95 49.6-134.49 170.87-175.11 399.4l-308.99 1738.05c-45.25 254.66-147.95 482.54-299.99 673.46-151.74 190.55-350.61 341.43-588.53 442.51-237.46 100.86-484.07 139.14-726.87 116.05-242.66-23.09-477.51-107.17-691.64-250.99l-4605.61-3093.33c-56.9-38.22-115.49-66.45-177.64-85.25-62.95-19.05-127.81-28.14-196.48-27.88-3919.99 15.24-7840.15 34.11-11760.13 45.57l0 1.56c-351.5 0-671.45-144.87-904.16-377.91-230.58-230.91-374.15-550.77-375.5-903.3l-0.01-3.45-1.56 0 0-12087.15c0-353.69 144.41-674.95 377.05-907.59 232.64-232.64 553.91-377.05 907.6-377.05z m10889.41 800l-10889.41 0c-132.86 0-253.96 54.65-341.98 142.67-88.02 88.02-142.67 209.11-142.67 341.97l0 12087.15-1.56 0 0.01 3.45c0.5 131.28 55.66 252.09 144.24 340.8 86.45 86.58 206.21 140.41 338.54 140.41l0 1.56c3919.98-11.46 7840.14-30.33 11760.13-45.57 152.9-0.59 294.1 18.7 427.74 59.14 134.45 40.67 263.1 103.04 390.14 188.37l4605.61 3093.33c102.91 69.12 212.51 109.23 322.88 119.73 110.22 10.48 225.32-8.23 339.37-56.67 113.62-48.27 206.86-118.15 276.03-205.01 68.87-86.48 115.93-192.73 137.49-314.08l308.99-1738.05c84.56-475.69 252.02-762.42 546.99-943.16 264.99-162.37 591.99-199.97 1036.96-196.32l4646.08 38.05c10.65-0.85 21.41-1.3 32.27-1.3 130.59 0 248.96-53.58 334.75-139.62 83.27-83.51 137-196.02 143.58-319.22-0.54-8.54-0.85-17.16-0.85-25.84l0-12087.15c0-132.86-54.65-253.95-142.67-341.97-88.02-88.02-209.11-142.67-341.97-142.67l-13930.69 0z m-14046.1 29265.86c732.57 0 1395.82 296.97 1875.94 777.08 480.11 480.12 777.08 1143.38 777.08 1875.94 0 732.56-296.97 1395.81-777.08 1875.93-480.12 480.11-1143.38 777.08-1875.94 777.08-732.56 0-1395.81-296.97-1875.93-777.08-480.11-480.12-777.08-1143.37-777.08-1875.93 0-732.56 296.97-1395.82 777.08-1875.94 480.12-480.11 1143.37-777.08 1875.93-777.08z m1310.32 1342.7c-335.3-335.29-798.58-542.7-1310.32-542.7-511.73 0-975.01 207.41-1310.31 542.7-335.29 335.3-542.7 798.59-542.7 1310.32 0 511.73 207.41 975.01 542.7 1310.31 335.3 335.29 798.58 542.7 1310.31 542.7 511.73 0 975.02-207.41 1310.32-542.7 335.29-335.3 542.7-798.58 542.7-1310.31 0-511.73-207.41-975.02-542.7-1310.32z" fill="#ffffff" fill-rule="nonzero" data-fill-palette-color="accent"></path></g></svg></g></svg></g><path d="M85.545 107.032V107.032C86.142 108.261 86.3 109.284 86.017 110.101V110.101C85.836 110.624 85.519 110.911 85.066 110.962V110.962C84.843 110.592 84.413 110.297 83.775 110.076V110.076L83.516 109.987C83.446 109.962 83.38 109.947 83.318 109.94V109.94C82.611 110.331 81.906 110.406 81.204 110.163 80.508 109.922 79.911 109.344 79.413 108.429V108.429C78.955 108.492 78.506 108.447 78.065 108.295 77.631 108.145 77.246 107.937 76.909 107.67 76.57 107.41 76.3 107.117 76.099 106.79V106.79C75.632 106.093 75.478 105.514 75.637 105.054 75.796 104.595 76.092 104.329 76.524 104.257V104.257C76.815 104.822 77.423 105.264 78.348 105.584 79.268 105.902 80.115 106.045 80.891 106.013 81.667 105.981 82.385 105.804 83.047 105.483V105.483C84.481 104.807 85.48 103.655 86.043 102.027V102.027C86.42 100.935 86.425 99.897 86.058 98.912V98.912C85.67 97.863 84.895 97.138 83.734 96.737V96.737C82.916 96.454 82.186 96.416 81.543 96.623V96.623C80.535 96.953 79.366 97.607 78.035 98.583V98.583C76.995 99.338 76.374 100.01 76.17 100.597V100.597C75.961 101.203 75.976 101.956 76.216 102.853V102.853C75.701 102.461 75.192 102.178 74.687 102.003V102.003C74.572 101.963 74.388 102.021 74.134 102.176V102.176L73.351 102.613C70.83 103.972 68.722 104.561 67.025 104.382V104.382C66.434 104.314 65.727 104.137 64.904 103.852 64.074 103.565 63.307 103.075 62.603 102.382 61.893 101.686 61.364 100.881 61.015 99.967V99.967C60.272 98.067 60.292 95.983 61.075 93.717V93.717C61.552 92.338 62.209 91.15 63.047 90.153V90.153C63.412 89.736 63.703 89.215 63.92 88.59V88.59C64.01 88.328 64.076 88.086 64.117 87.864 64.164 87.645 64.113 87.42 63.964 87.19V87.19C63.8 86.962 63.632 86.818 63.459 86.758 63.287 86.698 63.134 86.674 63.002 86.686V86.686C62.999 86.592 63.021 86.474 63.07 86.334 63.121 86.187 63.223 86.047 63.376 85.914 63.531 85.775 63.718 85.668 63.937 85.594V85.594C64.434 85.416 64.926 85.41 65.411 85.578 65.89 85.744 66.209 86.008 66.37 86.371V86.371C66.84 86.105 67.437 86.096 68.158 86.346V86.346C68.86 86.588 69.369 87.029 69.684 87.667V87.667C70.022 87.683 70.312 87.733 70.554 87.817 70.803 87.903 71.024 88.03 71.217 88.196 71.405 88.354 71.554 88.534 71.662 88.736V88.736C71.905 89.192 71.976 89.567 71.874 89.86V89.86C71.713 90.326 71.498 90.691 71.228 90.955V90.955C70.834 90.605 70.376 90.339 69.852 90.158 69.329 89.977 68.752 89.91 68.121 89.956 67.486 89.994 66.892 90.153 66.337 90.433V90.433C65.188 91.029 64.365 92.045 63.868 93.482V93.482C63.553 94.395 63.572 95.238 63.927 96.011V96.011C64.269 96.736 64.807 97.226 65.542 97.48V97.48C66.103 97.674 66.62 97.699 67.092 97.555V97.555C67.902 97.299 68.834 96.774 69.887 95.981V95.981L70.714 95.355C71.16 94.995 71.411 94.735 71.466 94.575 71.521 94.416 71.557 94.25 71.574 94.077 71.598 93.906 71.614 93.715 71.622 93.504V93.504C71.63 93.049 71.576 92.584 71.462 92.108V92.108L72.333 92.656C72.628 92.837 72.852 92.953 73.006 93.006V93.006C73.242 93.088 73.497 93.044 73.77 92.874V92.874C76.352 91.379 78.389 90.49 79.881 90.205V90.205C81.176 89.953 82.449 90.043 83.7 90.475 84.952 90.908 85.957 91.484 86.716 92.204 87.475 92.923 88.066 93.796 88.491 94.822V94.822C89.444 97.088 89.441 99.607 88.484 102.377V102.377C87.811 104.324 86.831 105.876 85.545 107.032ZM64.467 101.053V101.053C64.498 101.543 64.896 101.92 65.662 102.185V102.185C67.22 102.723 69.294 102.275 71.884 100.841V100.841L73.157 100.134C73.598 99.893 73.898 99.822 74.057 99.92 74.21 100.016 74.332 100.097 74.423 100.164 74.516 100.225 74.605 100.288 74.69 100.353 74.766 100.422 74.825 100.468 74.868 100.49V100.49C74.768 100.012 74.762 99.649 74.848 99.4V99.4C75.022 98.896 75.319 98.47 75.74 98.122V98.122C77.865 96.398 79.6 95.329 80.944 94.914V94.914C81.928 94.611 83.01 94.653 84.191 95.04V95.04C84.613 95.186 84.954 95.336 85.215 95.49V95.49C85.041 94.752 84.533 94.237 83.691 93.945V93.945C82.867 93.66 82.197 93.554 81.679 93.625 81.155 93.694 80.67 93.816 80.223 93.99 79.769 94.169 79.255 94.424 78.683 94.755 78.111 95.086 77.467 95.513 76.75 96.037V96.037L74.252 97.897C72.255 99.436 70.35 100.471 68.537 101.002V101.002C66.932 101.47 65.575 101.487 64.467 101.053ZM118.314 55.99V55.99C118.142 56.695 117.776 57.321 117.215 57.868 116.654 58.415 116.019 58.765 115.31 58.918V58.918C115.139 59.623 114.865 60.159 114.488 60.527 114.115 60.89 113.775 61.156 113.467 61.324 113.164 61.497 112.867 61.617 112.574 61.685V61.685C111.985 61.816 111.528 61.715 111.203 61.381V61.381C111.033 61.207 110.93 61.01 110.895 60.79V60.79C111.234 60.751 111.549 60.59 111.839 60.308V60.308C112.608 59.558 112.82 58.71 112.473 57.765V57.765L106.305 51.439C105.918 51.043 105.551 50.83 105.203 50.802V50.802C104.63 50.738 103.879 50.857 102.948 51.161V51.161C103.269 50.319 103.418 49.712 103.394 49.339V49.339C103.359 48.713 103.136 48.19 102.726 47.769V47.769L97.4 42.307C96.458 41.932 95.604 42.119 94.835 42.869V42.869C94.544 43.152 94.373 43.46 94.321 43.794V43.794C94.102 43.753 93.91 43.648 93.745 43.479 93.585 43.314 93.48 43.11 93.43 42.866 93.39 42.622 93.406 42.366 93.476 42.1V42.1C93.637 41.471 93.976 40.905 94.493 40.4 95.006 39.9 95.616 39.583 96.325 39.449V39.449C96.496 38.725 96.858 38.094 97.409 37.556 97.96 37.019 98.6 36.673 99.328 36.52V36.52C99.48 35.815 99.745 35.279 100.122 34.911 100.504 34.538 100.847 34.266 101.15 34.093 101.453 33.92 101.751 33.804 102.043 33.746V33.746C102.632 33.605 103.092 33.704 103.422 34.043V34.043C103.587 34.212 103.685 34.409 103.715 34.634V34.634C103.385 34.673 103.073 34.836 102.778 35.123V35.123C102.014 35.869 101.807 36.716 102.158 37.666V37.666L107.485 43.129C107.895 43.549 108.291 43.776 108.672 43.81V43.81C109.283 43.865 110.013 43.743 110.862 43.443V43.443C110.536 44.366 110.384 45.009 110.408 45.372V45.372C110.459 45.927 110.677 46.403 111.064 46.799V46.799L117.232 53.125C118.168 53.495 119.018 53.307 119.783 52.562V52.562C120.078 52.274 120.246 51.964 120.289 51.63V51.63C120.513 51.666 120.707 51.769 120.872 51.938 121.037 52.107 121.14 52.314 121.18 52.558 121.224 52.797 121.212 53.055 121.141 53.331V53.331C120.981 53.96 120.646 54.522 120.139 55.017 119.631 55.512 119.022 55.836 118.314 55.99ZM110.842 53.61L112.476 55.286C112.751 54.707 112.438 53.912 111.539 52.902V52.902C110.649 51.883 109.371 50.52 107.707 48.813 106.042 47.106 104.931 45.972 104.375 45.411 103.818 44.85 103.368 44.402 103.023 44.068V44.068C102.004 43.072 101.309 42.552 100.936 42.509 100.56 42.461 100.266 42.474 100.055 42.548V42.548C102.978 45.546 104.59 47.305 104.889 47.825V47.825C105.103 48.286 105.051 48.818 104.733 49.421V49.421C105.425 49.095 105.932 49.03 106.254 49.225V49.225C106.761 49.532 108.291 50.994 110.842 53.61ZM160.139 32.357V32.357C159.373 32.578 158.642 32.588 157.944 32.389V32.389C157.46 32.929 156.965 33.272 156.459 33.418 155.959 33.562 155.534 33.635 155.183 33.638 154.835 33.647 154.515 33.613 154.226 33.534V33.534C153.644 33.372 153.289 33.066 153.16 32.618V32.618C153.093 32.385 153.096 32.163 153.168 31.952V31.952C153.486 32.078 153.84 32.085 154.229 31.973V31.973C155.261 31.676 155.848 31.028 155.989 30.032V30.032L153.542 21.542C153.389 21.01 153.165 20.649 152.872 20.46V20.46C152.398 20.132 151.679 19.883 150.715 19.71V19.71C151.396 19.121 151.814 18.656 151.969 18.316V18.316C152.234 17.747 152.285 17.181 152.122 16.616V16.616L150.009 9.285C149.357 8.51 148.515 8.271 147.483 8.569V8.569C147.093 8.681 146.797 8.872 146.593 9.141V9.141C146.42 9.002 146.3 8.818 146.235 8.591 146.171 8.37 146.175 8.141 146.247 7.902 146.327 7.668 146.461 7.45 146.649 7.249V7.249C147.088 6.771 147.654 6.432 148.349 6.231 149.037 6.033 149.725 6.042 150.413 6.259V6.259C150.906 5.702 151.49 5.326 152.165 5.131 152.84 4.937 153.507 4.899 154.167 5.018V5.018C155.421 4.221 156.632 3.654 157.8 3.317 158.968 2.981 160.021 2.744 160.959 2.607 161.898 2.477 162.826 2.452 163.742 2.532 164.658 2.613 165.553 2.815 166.427 3.14 167.307 3.463 168.145 3.942 168.94 4.577V4.577C170.625 5.912 172.035 7.913 173.169 10.581V10.581C173.437 11.242 173.721 11.68 174.023 11.896V11.896C174.523 12.243 175.124 12.436 175.823 12.473V12.473C175.221 12.921 174.855 13.308 174.724 13.634V13.634C174.507 14.174 174.459 14.789 174.581 15.478V15.478C175.305 19.431 174.868 22.766 173.268 25.483V25.483C171.734 28.112 169.276 29.913 165.895 30.888V30.888C164.545 31.277 163.27 31.416 162.071 31.305V31.305C161.64 31.759 160.996 32.11 160.139 32.357ZM156.191 6.734L162.426 28.366C163.164 28.828 163.99 28.927 164.906 28.664 165.827 28.398 166.573 27.986 167.143 27.428 167.72 26.868 168.128 26.139 168.368 25.24V25.24C168.859 23.405 168.622 20.816 167.659 17.473V17.473C167.449 16.746 167.189 16.283 166.879 16.085V16.085C166.461 15.805 165.853 15.635 165.056 15.577V15.577C165.692 15.126 166.08 14.751 166.218 14.451V14.451C166.447 13.928 166.47 13.349 166.286 12.713 166.101 12.07 165.867 11.441 165.585 10.827 165.311 10.217 164.983 9.63 164.602 9.065 164.221 8.499 163.792 7.973 163.314 7.485 162.844 7.002 162.332 6.601 161.776 6.284V6.284C160.565 5.592 159.32 5.431 158.041 5.8V5.8C157.652 5.912 157.275 6.031 156.91 6.157 156.546 6.283 156.306 6.475 156.191 6.734ZM165.583 6.905V6.905C167.148 9.069 168.18 11.014 168.677 12.74V12.74C168.848 13.331 168.899 13.692 168.832 13.824 168.764 13.956 168.684 14.081 168.592 14.199V14.199C168.423 14.395 168.228 14.571 168.006 14.727V14.727C168.79 14.838 169.243 15.031 169.364 15.305V15.305C169.421 15.429 169.468 15.556 169.505 15.686V15.686L169.629 16.114C170.08 17.679 170.354 19.241 170.453 20.801 170.549 22.355 170.591 23.415 170.578 23.981V23.981C171.061 23.68 171.342 23.227 171.42 22.621 171.505 22.013 171.543 21.376 171.534 20.711 171.525 20.046 171.472 19.351 171.376 18.627V18.627C171.191 17.133 170.876 15.611 170.429 14.06V14.06C169.628 11.282 168.574 9.161 167.266 7.696V7.696C166.709 7.132 166.148 6.869 165.583 6.905ZM156.515 25.599L157.163 27.848C157.679 27.467 157.779 26.62 157.463 25.305V25.305C157.16 23.986 156.679 22.181 156.018 19.89 155.358 17.599 154.915 16.075 154.69 15.317 154.464 14.56 154.279 13.952 154.133 13.495V13.495C153.706 12.135 153.338 11.348 153.031 11.135 152.721 10.915 152.456 10.787 152.235 10.752V10.752C153.395 14.776 153.984 17.088 154.002 17.687V17.687C153.973 18.195 153.675 18.639 153.11 19.02V19.02C153.874 19.06 154.352 19.242 154.544 19.566V19.566C154.846 20.077 155.502 22.088 156.515 25.599ZM221.53 28.63V28.63C220.758 28.432 220.122 28.071 219.621 27.546V27.546C218.931 27.767 218.33 27.812 217.819 27.682 217.315 27.553 216.912 27.401 216.608 27.226 216.302 27.057 216.044 26.866 215.834 26.652V26.652C215.415 26.217 215.264 25.774 215.379 25.322V25.322C215.439 25.087 215.554 24.896 215.724 24.751V24.751C215.934 25.021 216.235 25.206 216.628 25.307V25.307C217.668 25.572 218.502 25.311 219.128 24.523V24.523L221.315 15.963C221.449 15.44 221.441 15.009 221.29 14.671V14.671C221.054 14.122 220.562 13.536 219.815 12.913V12.913C220.692 12.754 221.286 12.571 221.597 12.365V12.365C222.113 12.009 222.442 11.552 222.585 10.996V10.996L224.473 3.604C224.303 2.606 223.698 1.973 222.657 1.708V1.708C222.264 1.607 221.912 1.622 221.6 1.751V1.751C221.521 1.543 221.511 1.324 221.569 1.095 221.626 0.872 221.746 0.677 221.929 0.507 222.116 0.346 222.342 0.226 222.606 0.147V0.147C223.226-0.043 223.887-0.049 224.587 0.13 225.281 0.307 225.869 0.663 226.353 1.198V1.198C227.06 0.968 227.787 0.948 228.533 1.138V1.138C229.351 1.347 230.006 1.745 230.498 2.331V2.331C231.934 2.112 233.294 2.166 234.576 2.494 235.865 2.824 237.005 3.247 237.995 3.765 238.984 4.29 239.849 4.887 240.591 5.558V5.558C242.192 7.013 243.022 8.581 243.08 10.262V10.262C243.115 11.191 243.504 11.973 244.248 12.61V12.61C243.138 13.023 242.365 13.62 241.929 14.401V14.401C240.966 16.121 239.667 17.072 238.031 17.254V17.254C240.07 18.416 241.133 20.215 241.222 22.65V22.65C241.246 23.513 241.63 24.315 242.375 25.056V25.056C241.349 25.331 240.553 25.936 239.987 26.872 239.426 27.81 238.66 28.586 237.687 29.202 236.714 29.818 235.653 30.258 234.505 30.523V30.523C232.291 31.031 229.95 30.969 227.483 30.339V30.339C226.017 29.964 224.772 29.364 223.75 28.538V28.538C223.036 28.795 222.296 28.825 221.53 28.63ZM228.686 13.967L231.954 14.802C232.982 15.064 233.774 15.005 234.332 14.625V14.625C234.917 14.245 235.367 13.439 235.681 12.209V12.209L236.714 8.165C236.897 7.451 236.677 6.757 236.054 6.082V6.082C235.51 5.483 234.96 5.112 234.404 4.97 233.847 4.828 233.376 4.777 232.989 4.818 232.601 4.865 232.236 4.967 231.896 5.124V5.124C231.175 5.463 230.727 5.976 230.552 6.663V6.663ZM238.237 6.379V6.379C238.404 7.362 238.27 8.708 237.833 10.416V10.416C237.193 12.923 236.614 14.507 236.096 15.17V15.17C236.61 15.204 237.146 14.839 237.704 14.075V14.075C237.915 13.794 238.095 13.485 238.244 13.146 238.398 12.816 238.52 12.558 238.609 12.372 238.704 12.193 238.808 12.042 238.924 11.919V11.919C239.174 11.676 239.545 11.534 240.037 11.492V11.492C239.611 11.223 239.36 10.988 239.286 10.788V10.788C239.187 10.546 239.159 10.152 239.201 9.605 239.243 9.058 239.242 8.601 239.196 8.234 239.15 7.867 239.079 7.559 238.982 7.311V7.311C238.795 6.817 238.546 6.506 238.237 6.379ZM221.825 20.967L221.246 23.234C221.883 23.167 222.399 22.487 222.792 21.193V21.193C223.199 19.902 223.697 18.102 224.287 15.792 224.877 13.482 225.267 11.943 225.456 11.176 225.645 10.408 225.793 9.791 225.898 9.323V9.323C226.218 7.933 226.3 7.069 226.143 6.729 225.987 6.382 225.823 6.138 225.65 5.996V5.996C224.613 10.054 223.951 12.346 223.663 12.872V12.872C223.381 13.295 222.9 13.527 222.22 13.57V13.57C222.858 13.991 223.178 14.39 223.179 14.766V14.766C223.181 15.359 222.73 17.426 221.825 20.967ZM228.121 16.175L225.987 24.529C225.779 25.341 225.916 26.09 226.395 26.777V26.777C226.866 27.42 227.516 27.848 228.347 28.06V28.06C229.152 28.266 229.875 28.262 230.515 28.05V28.05C231.737 27.63 232.462 26.975 232.69 26.085V26.085L233.999 20.961C234.272 19.894 234.133 19.005 233.583 18.292V18.292C233.116 17.692 232.411 17.271 231.469 17.031V17.031ZM235.827 18.719V18.719C235.948 19.419 235.715 20.915 235.13 23.205V23.205C234.391 26.098 233.853 27.769 233.514 28.22V28.22C233.768 28.236 234.093 28.002 234.489 27.517 234.891 27.034 235.219 26.515 235.472 25.959 235.726 25.404 235.899 25.026 235.992 24.827 236.084 24.627 236.194 24.457 236.321 24.315V24.315C236.595 24.008 236.973 23.837 237.457 23.8V23.8C236.813 23.398 236.515 22.848 236.561 22.149 236.605 21.456 236.619 20.912 236.601 20.517 236.575 20.127 236.524 19.811 236.446 19.568V19.568C236.319 19.138 236.113 18.855 235.827 18.719ZM277.923 57.056V57.056C277.208 56.936 276.558 56.615 275.972 56.094 275.387 55.573 274.993 54.965 274.789 54.269V54.269C274.074 54.148 273.52 53.912 273.126 53.562 272.737 53.216 272.448 52.896 272.259 52.601 272.065 52.311 271.924 52.022 271.835 51.736V51.736C271.663 51.157 271.731 50.694 272.041 50.346V50.346C272.203 50.164 272.392 50.048 272.609 49.997V49.997C272.672 50.333 272.855 50.635 273.157 50.905V50.905C273.96 51.619 274.82 51.769 275.739 51.357V51.357L281.611 44.756C281.979 44.342 282.165 43.96 282.168 43.611V43.611C282.192 43.035 282.019 42.294 281.651 41.388V41.388C282.513 41.648 283.129 41.753 283.499 41.703V41.703C284.121 41.623 284.628 41.364 285.018 40.925V40.925L290.089 35.225C290.396 34.26 290.149 33.42 289.346 32.706V32.706C289.043 32.437 288.724 32.288 288.387 32.26V32.26C288.412 32.038 288.504 31.839 288.661 31.663 288.813 31.491 289.01 31.372 289.25 31.305 289.491 31.248 289.746 31.245 290.017 31.296V31.296C290.656 31.412 291.245 31.71 291.785 32.191 292.32 32.666 292.679 33.253 292.864 33.95V33.95C293.598 34.07 294.253 34.386 294.828 34.898 295.403 35.409 295.793 36.023 295.998 36.738V36.738C296.712 36.84 297.266 37.066 297.659 37.416 298.058 37.771 298.354 38.093 298.548 38.383 298.742 38.673 298.879 38.962 298.958 39.249V39.249C299.14 39.827 299.074 40.293 298.759 40.646V40.646C298.602 40.823 298.413 40.934 298.19 40.981V40.981C298.128 40.654 297.943 40.354 297.635 40.08V40.08C296.838 39.371 295.978 39.225 295.055 39.642V39.642L289.984 45.343C289.594 45.782 289.395 46.193 289.389 46.576V46.576C289.377 47.189 289.55 47.909 289.91 48.734V48.734C288.966 48.474 288.314 48.368 287.954 48.418V48.418C287.404 48.508 286.945 48.759 286.577 49.173V49.173L280.705 55.774C280.402 56.735 280.649 57.569 281.447 58.279V58.279C281.754 58.553 282.076 58.699 282.412 58.717V58.717C282.392 58.944 282.303 59.145 282.146 59.321 281.989 59.498 281.79 59.615 281.55 59.672 281.314 59.734 281.056 59.739 280.776 59.689V59.689C280.137 59.573 279.553 59.279 279.023 58.808 278.493 58.336 278.127 57.753 277.923 57.056ZM279.767 49.435L278.212 51.184C278.809 51.417 279.579 51.049 280.522 50.08V50.08C281.476 49.12 282.745 47.749 284.33 45.967 285.914 44.186 286.967 42.998 287.487 42.403 288.007 41.808 288.422 41.327 288.73 40.959V40.959C289.653 39.872 290.122 39.141 290.138 38.767 290.159 38.388 290.125 38.096 290.037 37.89V37.89C287.253 41.019 285.613 42.752 285.116 43.087V43.087C284.671 43.333 284.137 43.319 283.513 43.044V43.044C283.887 43.711 283.988 44.212 283.816 44.548V44.548C283.546 45.076 282.196 46.705 279.767 49.435ZM304.038 93.931V93.931C303.438 93.552 303.038 93.097 302.836 92.566 302.633 92.03 302.53 91.617 302.529 91.329 302.521 91.042 302.564 90.784 302.657 90.554V90.554C302.835 90.11 303.177 89.792 303.682 89.6V89.6C303.941 89.502 304.142 89.498 304.284 89.588V89.588C304.197 89.947 304.202 90.256 304.3 90.514 304.399 90.773 304.5 90.984 304.606 91.146 304.719 91.313 304.881 91.472 305.09 91.623V91.623C305.511 91.912 306.308 92.129 307.484 92.275V92.275C313.102 92.95 316.195 93.256 316.764 93.192V93.192C316.911 93.18 317.025 93.158 317.107 93.127V93.127C317.746 92.906 318.043 92.167 318 90.912V90.912C318.827 92.101 319.717 92.865 320.67 93.203V93.203C320.998 93.325 321.347 93.408 321.719 93.455V93.455L330.877 94.679C330.907 93.635 330.782 92.746 330.504 92.014 330.225 91.281 329.961 90.71 329.711 90.299 329.452 89.884 329.158 89.508 328.828 89.171V89.171C327.544 87.867 325.789 87.298 323.562 87.465V87.465C322.767 87.522 322.044 87.674 321.394 87.921 320.737 88.17 320.308 88.467 320.106 88.811V88.811C319.793 88.634 319.585 88.409 319.482 88.138 319.376 87.86 319.332 87.581 319.348 87.3 319.366 87.026 319.448 86.756 319.593 86.491V86.491C319.913 85.907 320.436 85.477 321.163 85.202 321.889 84.926 322.489 84.802 322.962 84.832V84.832C323.126 84.083 323.523 83.589 324.155 83.349 324.786 83.109 325.408 83.119 326.019 83.378V83.378C326.349 82.84 326.707 82.498 327.092 82.352 327.484 82.203 327.836 82.131 328.148 82.135 328.467 82.137 328.772 82.198 329.063 82.319V82.319C329.657 82.57 330.067 82.992 330.293 83.586V83.586C330.405 83.882 330.448 84.177 330.422 84.468V84.468C330.159 84.518 329.901 84.59 329.649 84.686V84.686C329.131 84.883 328.962 85.218 329.142 85.692V85.692C329.274 86.039 329.6 86.468 330.119 86.979V86.979C331.122 87.964 331.946 89.305 332.591 91.004 333.234 92.696 333.485 94.201 333.343 95.52V95.52C334.156 95.969 334.716 96.595 335.021 97.397 335.323 98.192 335.394 98.949 335.233 99.668V99.668C335.792 99.998 336.16 100.396 336.338 100.863 336.515 101.33 336.604 101.698 336.605 101.965 336.603 102.226 336.555 102.471 336.462 102.702V102.702C336.253 103.179 335.912 103.507 335.438 103.687V103.687C335.179 103.785 334.983 103.791 334.849 103.705V103.705C334.926 103.336 334.905 102.997 334.788 102.688 334.67 102.378 334.538 102.136 334.392 101.96 334.239 101.787 334.047 101.643 333.816 101.529V101.529C333.358 101.313 332.499 101.162 331.238 101.078V101.078C327.084 100.756 324.775 100.611 324.31 100.643 323.843 100.669 323.514 100.718 323.325 100.79V100.79C322.694 101.03 322.388 101.604 322.409 102.514V102.514C321.855 101.684 321.194 101.057 320.426 100.634 319.661 100.217 318.729 99.953 317.632 99.842V99.842L308.768 98.962C308.563 100.21 308.736 101.561 309.288 103.013V103.013C309.96 104.781 311.272 105.933 313.225 106.47V106.47C314.397 106.798 315.669 106.817 317.04 106.527V106.527C317.379 106.449 317.798 106.315 318.297 106.125 318.789 105.938 319.139 105.672 319.347 105.325V105.325C319.66 105.502 319.868 105.727 319.972 105.998 320.077 106.276 320.118 106.554 320.093 106.83 320.07 107.113 319.981 107.393 319.826 107.669V107.669C319.516 108.242 319.011 108.661 318.31 108.928 317.603 109.196 316.988 109.318 316.465 109.293V109.293C316.3 110.056 315.905 110.557 315.28 110.794 314.649 111.034 314.028 111.017 313.418 110.743V110.743C313.086 111.296 312.731 111.644 312.352 111.788 311.967 111.934 311.615 112.007 311.296 112.005 310.984 112.001 310.684 111.945 310.398 111.837V111.837C309.793 111.575 309.376 111.145 309.148 110.545V110.545C309.038 110.254 308.999 109.962 309.032 109.668V109.668C309.295 109.618 309.549 109.547 309.795 109.453V109.453C310.313 109.257 310.482 108.922 310.302 108.448V108.448C310.17 108.101 309.848 107.67 309.335 107.157V107.157C308.326 106.175 307.5 104.838 306.857 103.146 306.216 101.46 305.885 99.924 305.864 98.537V98.537C305.132 97.941 304.604 97.217 304.28 96.364 303.956 95.512 303.875 94.701 304.038 93.931ZM309.374 95.252L329.104 97.087C328.632 96.378 327.647 95.953 326.149 95.814V95.814L322.391 95.422C321.397 95.315 320.723 95.217 320.371 95.127 320.021 95.043 319.734 94.885 319.508 94.653 319.291 94.425 319.048 94.098 318.778 93.673V93.673C318.774 93.928 318.713 94.167 318.596 94.392 318.473 94.62 318.31 94.761 318.107 94.817 317.902 94.866 317.681 94.892 317.443 94.896 317.209 94.905 316.928 94.9 316.603 94.879 316.279 94.865 315.903 94.834 315.473 94.788V94.788L312.335 94.517C311.263 94.433 310.556 94.456 310.215 94.586V94.586C309.742 94.766 309.461 94.988 309.374 95.252ZM66.643 185.568V185.568C65.405 184.967 64.643 184.252 64.355 183.423V183.423C64.172 182.893 64.242 182.468 64.567 182.148V182.148C64.986 182.303 65.517 182.269 66.162 182.046V182.046L66.42 181.956C66.49 181.932 66.552 181.903 66.605 181.87V181.87C66.923 181.117 67.436 180.617 68.144 180.372 68.853 180.126 69.692 180.207 70.663 180.614V180.614C70.985 180.287 71.37 180.047 71.817 179.892 72.257 179.739 72.694 179.659 73.128 179.652 73.557 179.653 73.955 179.719 74.322 179.849V179.849C75.122 180.115 75.603 180.481 75.764 180.947 75.926 181.412 75.859 181.807 75.564 182.131V182.131C74.98 181.869 74.222 181.9 73.29 182.223 72.358 182.546 71.591 182.962 70.988 183.471 70.394 183.985 69.934 184.573 69.606 185.237V185.237C68.895 186.671 68.826 188.214 69.399 189.867V189.867C69.782 190.971 70.423 191.799 71.323 192.352V192.352C72.293 192.945 73.366 193.038 74.54 192.631V192.631C75.369 192.343 75.974 191.912 76.354 191.337V191.337C76.948 190.452 77.469 189.203 77.917 187.589V187.589C78.272 186.343 78.345 185.421 78.137 184.821V184.821C77.925 184.208 77.442 183.621 76.69 183.06V183.06C77.35 183.045 77.932 182.951 78.436 182.776V182.776C78.551 182.736 78.664 182.576 78.773 182.295V182.295L79.116 181.457C80.274 178.797 81.584 177.009 83.047 176.094V176.094C83.558 175.774 84.232 175.469 85.068 175.179 85.904 174.889 86.82 174.801 87.817 174.912 88.82 175.022 89.742 175.332 90.584 175.84V175.84C92.369 176.887 93.659 178.556 94.453 180.847V180.847C94.936 182.238 95.156 183.595 95.114 184.918V184.918C95.087 185.478 95.184 186.077 95.405 186.715V186.715C95.496 186.977 95.59 187.209 95.689 187.41 95.796 187.616 95.979 187.764 96.239 187.852V187.852C96.515 187.928 96.74 187.936 96.912 187.876 97.084 187.817 97.219 187.741 97.316 187.65V187.65C97.377 187.722 97.433 187.832 97.484 187.979 97.532 188.119 97.539 188.292 97.503 188.497 97.467 188.703 97.387 188.906 97.263 189.106V189.106C96.976 189.556 96.587 189.866 96.095 190.036 95.61 190.204 95.192 190.192 94.839 190V190C94.631 190.515 94.164 190.899 93.436 191.151V191.151C92.722 191.399 92.038 191.365 91.385 191.048V191.048C91.109 191.243 90.847 191.384 90.598 191.47 90.349 191.557 90.099 191.597 89.847 191.592 89.592 191.58 89.357 191.529 89.14 191.44V191.44C88.665 191.226 88.377 190.972 88.275 190.678V190.678C88.111 190.206 88.056 189.778 88.109 189.395V189.395C88.637 189.434 89.166 189.361 89.696 189.177 90.226 188.994 90.73 188.687 91.21 188.256 91.683 187.827 92.053 187.327 92.32 186.756V186.756C92.863 185.559 92.883 184.237 92.381 182.788V182.788C92.06 181.863 91.514 181.205 90.743 180.815V180.815C90.02 180.443 89.286 180.387 88.539 180.646V180.646C87.971 180.843 87.548 181.147 87.269 181.558V181.558C86.779 182.271 86.365 183.273 86.026 184.563V184.563L85.76 185.588C85.632 186.147 85.596 186.506 85.651 186.666 85.706 186.825 85.779 186.983 85.868 187.137 85.962 187.284 86.071 187.446 86.197 187.624V187.624C86.475 187.992 86.809 188.327 87.2 188.627V188.627L86.153 188.733C85.812 188.78 85.565 188.83 85.412 188.883V188.883C85.169 188.967 84.99 189.161 84.874 189.466V189.466C83.758 192.269 82.698 194.253 81.693 195.416V195.416C80.821 196.426 79.75 197.151 78.48 197.592 77.216 198.03 76.056 198.2 75 198.101 73.943 198.003 72.927 197.68 71.95 197.132V197.132C69.778 195.919 68.208 193.915 67.238 191.12V191.12C66.555 189.148 66.356 187.297 66.643 185.568ZM87.164 177.144V177.144C86.827 176.768 86.275 176.713 85.509 176.978V176.978C83.926 177.527 82.555 179.182 81.397 181.943V181.943L80.83 183.308C80.628 183.778 80.434 184.021 80.246 184.036 80.06 184.057 79.912 184.073 79.801 184.083 79.688 184.087 79.578 184.089 79.471 184.09 79.368 184.083 79.289 184.082 79.234 184.087V184.087C79.618 184.411 79.853 184.698 79.94 184.947V184.947C80.117 185.457 80.145 185.983 80.026 186.525V186.525C79.411 189.226 78.703 191.163 77.901 192.334V192.334C77.302 193.185 76.414 193.829 75.236 194.266V194.266C74.808 194.415 74.441 194.51 74.133 194.552V194.552C74.742 195.027 75.47 195.118 76.319 194.824V194.824C77.148 194.536 77.75 194.199 78.123 193.812 78.493 193.434 78.801 193.034 79.048 192.612 79.295 192.19 79.543 191.668 79.792 191.046 80.041 190.423 80.286 189.677 80.527 188.807V188.807L81.353 185.775C81.981 183.299 82.851 181.281 83.962 179.723V179.723C84.943 178.347 86.011 177.487 87.164 177.144ZM103.693 245.08V245.08C102.974 244.927 102.33 244.572 101.759 244.015 101.193 243.464 100.824 242.831 100.653 242.117V242.117C99.934 241.963 99.386 241.703 99.009 241.335 98.627 240.963 98.343 240.625 98.158 240.322 97.982 240.018 97.856 239.721 97.781 239.431V239.431C97.625 238.836 97.715 238.366 98.049 238.023V238.023C98.219 237.849 98.416 237.744 98.64 237.707V237.707C98.687 238.046 98.858 238.359 99.154 238.646V238.646C99.932 239.406 100.792 239.598 101.733 239.222V239.222L107.978 232.816C108.369 232.414 108.577 232.037 108.601 231.683V231.683C108.656 231.104 108.517 230.347 108.185 229.41V229.41C109.044 229.719 109.662 229.854 110.039 229.816V229.816C110.664 229.765 111.186 229.524 111.606 229.094V229.094L116.994 223.565C117.355 222.605 117.145 221.746 116.367 220.987V220.987C116.072 220.699 115.754 220.536 115.415 220.497V220.497C115.445 220.272 115.543 220.075 115.708 219.906 115.873 219.737 116.079 219.626 116.327 219.576 116.575 219.525 116.835 219.533 117.108 219.601V219.601C117.75 219.746 118.33 220.071 118.848 220.575 119.37 221.084 119.707 221.696 119.86 222.411V222.411C120.597 222.563 121.244 222.911 121.801 223.453 122.362 224 122.728 224.64 122.9 225.374V225.374C123.618 225.508 124.171 225.763 124.558 226.141 124.94 226.513 125.221 226.853 125.402 227.162 125.583 227.46 125.708 227.757 125.779 228.052V228.052C125.934 228.647 125.847 229.114 125.517 229.453V229.453C125.348 229.627 125.151 229.732 124.927 229.768V229.768C124.879 229.43 124.708 229.117 124.413 228.829V228.829C123.634 228.07 122.77 227.883 121.819 228.268V228.268L116.431 233.797C116.011 234.227 115.792 234.636 115.773 235.023V235.023C115.728 235.64 115.871 236.374 116.202 237.224V237.224C115.257 236.916 114.599 236.779 114.227 236.813V236.813C113.669 236.882 113.194 237.117 112.803 237.519V237.519L106.558 243.925C106.207 244.876 106.421 245.73 107.2 246.489V246.489C107.495 246.777 107.812 246.94 108.152 246.979V246.979C108.121 247.203 108.024 247.401 107.859 247.57 107.689 247.744 107.483 247.854 107.24 247.9 106.992 247.951 106.729 247.945 106.451 247.882V247.882C105.814 247.732 105.237 247.405 104.719 246.901 104.206 246.401 103.864 245.794 103.693 245.08ZM105.909 237.464L104.247 239.169C104.848 239.424 105.646 239.084 106.642 238.149V238.149C107.647 237.224 108.992 235.898 110.675 234.171 112.363 232.44 113.482 231.286 114.034 230.711 114.585 230.135 115.026 229.668 115.356 229.311V229.311C116.336 228.257 116.847 227.539 116.89 227.156 116.923 226.773 116.9 226.478 116.821 226.268V226.268C113.861 229.306 112.124 230.981 111.612 231.293V231.293C111.147 231.528 110.607 231.488 109.991 231.171V231.171C110.34 231.868 110.42 232.381 110.233 232.708V232.708C109.93 233.233 108.488 234.818 105.909 237.464ZM153.901 274.89V274.89C153.129 274.667 152.499 274.281 152.01 273.733V273.733C151.304 273.937 150.699 273.966 150.192 273.82 149.68 273.672 149.27 273.508 148.963 273.328 148.665 273.144 148.414 272.941 148.21 272.721V272.721C147.792 272.27 147.65 271.814 147.783 271.353V271.353C147.85 271.119 147.974 270.934 148.154 270.796V270.796C148.356 271.072 148.654 271.267 149.05 271.381V271.381C150.095 271.683 150.944 271.446 151.596 270.671V270.671L154.076 262.075C154.231 261.536 154.236 261.106 154.09 260.782V260.782C153.865 260.246 153.385 259.644 152.65 258.975V258.975C153.553 258.842 154.162 258.669 154.476 258.458V258.458C155.003 258.118 155.35 257.659 155.517 257.081V257.081L157.656 249.663C157.521 248.647 156.93 247.988 155.886 247.687V247.687C155.49 247.572 155.133 247.578 154.815 247.705V247.705C154.736 247.492 154.729 247.272 154.795 247.045 154.86 246.818 154.99 246.623 155.184 246.461 155.379 246.3 155.612 246.184 155.885 246.115V246.115C156.52 245.94 157.184 245.952 157.878 246.152 158.579 246.355 159.166 246.735 159.637 247.292V247.292C160.36 247.079 161.065 247.072 161.753 247.27 162.434 247.467 163.025 247.795 163.525 248.256V248.256C165.025 248.246 166.369 248.412 167.557 248.754 168.738 249.095 169.767 249.462 170.645 249.856 171.523 250.25 172.331 250.726 173.07 251.283 173.807 251.847 174.464 252.505 175.042 253.255 175.62 254.005 176.078 254.868 176.415 255.844V255.844C177.147 257.89 177.277 260.363 176.805 263.264V263.264C176.678 263.973 176.684 264.502 176.822 264.851V264.851C177.068 265.414 177.48 265.898 178.059 266.304V266.304C177.309 266.369 176.787 266.507 176.495 266.718V266.718C176.017 267.058 175.644 267.559 175.376 268.22V268.22C173.872 271.997 171.702 274.619 168.868 276.086V276.086C166.132 277.504 163.054 277.72 159.633 276.733V276.733C158.264 276.338 157.095 275.772 156.126 275.036V275.036C155.513 275.189 154.771 275.141 153.901 274.89ZM164.338 250.81L158.019 272.714C158.396 273.504 159.051 274.034 159.986 274.304 160.914 274.572 161.775 274.62 162.57 274.448 163.358 274.275 164.101 273.87 164.797 273.235V273.235C166.2 271.931 167.39 269.585 168.367 266.198V266.198C168.58 265.458 168.608 264.921 168.452 264.588V264.588C168.242 264.119 167.813 263.644 167.165 263.162V263.162C167.95 263.121 168.484 263.012 168.768 262.833V262.833C169.24 262.513 169.571 262.025 169.76 261.369 169.947 260.72 170.084 260.06 170.172 259.39 170.267 258.721 170.302 258.039 170.278 257.343 170.258 256.655 170.177 255.974 170.034 255.3 169.889 254.633 169.664 254.013 169.358 253.439V253.439C168.69 252.199 167.713 251.394 166.428 251.023V251.023C166.025 250.907 165.634 250.801 165.254 250.705 164.878 250.618 164.573 250.653 164.338 250.81ZM172.292 256.026V256.026C172.463 258.725 172.296 260.948 171.792 262.694V262.694C171.62 263.291 171.47 263.627 171.343 263.703 171.209 263.777 171.072 263.839 170.931 263.89V263.89C170.682 263.973 170.423 264.017 170.154 264.024V264.024C170.763 264.544 171.045 264.956 171 265.259V265.259C170.982 265.395 170.954 265.527 170.916 265.657V265.657L170.79 266.095C170.333 267.679 169.729 269.164 168.978 270.55 168.22 271.934 167.683 272.869 167.367 273.354V273.354C167.938 273.35 168.422 273.11 168.819 272.634 169.217 272.158 169.59 271.633 169.938 271.059 170.295 270.48 170.626 269.855 170.932 269.184V269.184C171.582 267.81 172.133 266.338 172.586 264.768V264.768C173.397 261.958 173.636 259.57 173.303 257.604V257.604C173.134 256.824 172.797 256.298 172.292 256.026ZM154.447 267.149L153.787 269.437C154.437 269.378 154.98 268.702 155.416 267.407V267.407C155.866 266.117 156.425 264.313 157.093 261.997 157.764 259.673 158.206 258.128 158.42 257.36 158.635 256.592 158.803 255.973 158.925 255.502V255.502C159.291 254.11 159.403 253.235 159.26 252.878 159.109 252.525 158.949 252.275 158.78 252.128V252.128C157.604 256.204 156.865 258.5 156.561 259.017V259.017C156.262 259.444 155.766 259.663 155.074 259.674V259.674C155.711 260.125 156.024 260.539 156.013 260.915V260.915C155.993 261.521 155.471 263.599 154.447 267.149ZM226.932 278.847V278.847C226.153 279.045 225.414 279.032 224.715 278.806V278.806C224.21 279.34 223.702 279.671 223.192 279.802 222.675 279.934 222.239 280 221.883 280 221.533 279.992 221.214 279.944 220.927 279.857V279.857C220.338 279.68 219.984 279.359 219.865 278.895V278.895C219.805 278.659 219.818 278.436 219.903 278.226V278.226C220.217 278.362 220.573 278.379 220.973 278.277V278.277C222.026 278.008 222.638 277.374 222.809 276.376V276.376L220.595 267.707C220.46 267.177 220.244 266.797 219.948 266.565V266.565C219.477 266.198 218.758 265.918 217.788 265.726V265.726C218.487 265.157 218.925 264.704 219.104 264.365V264.365C219.386 263.805 219.454 263.241 219.309 262.671V262.671L217.399 255.191C216.767 254.383 215.924 254.114 214.871 254.383V254.383C214.472 254.485 214.167 254.671 213.957 254.94V254.94C213.781 254.797 213.664 254.611 213.605 254.382 213.547 254.153 213.56 253.919 213.646 253.681 213.732 253.443 213.875 253.226 214.075 253.028V253.028C214.533 252.555 215.112 252.23 215.812 252.051 216.519 251.87 217.217 251.901 217.907 252.144V252.144C218.422 251.594 219.055 251.223 219.808 251.031V251.031C220.639 250.818 221.418 250.853 222.145 251.134V251.134C223.312 250.244 224.547 249.632 225.849 249.3 227.145 248.969 228.362 248.794 229.501 248.775 230.633 248.758 231.689 248.868 232.67 249.105V249.105C234.802 249.621 236.3 250.612 237.162 252.078V252.078C237.646 252.882 238.375 253.386 239.347 253.591V253.591C238.554 254.498 238.155 255.405 238.149 256.312V256.312C238.128 258.305 237.435 259.778 236.068 260.734V260.734C238.45 260.781 240.268 261.864 241.52 263.984V263.984C241.971 264.741 242.705 265.265 243.72 265.556V265.556C242.941 266.299 242.529 267.223 242.483 268.329 242.438 269.435 242.134 270.496 241.571 271.511 241.009 272.533 240.282 273.44 239.39 274.233V274.233C237.659 275.755 235.547 276.835 233.054 277.472V277.472C231.568 277.851 230.172 277.925 228.865 277.694V277.694C228.355 278.264 227.711 278.648 226.932 278.847ZM226.181 262.349L229.489 261.504C230.529 261.239 231.206 260.804 231.519 260.201V260.201C231.847 259.574 231.852 258.638 231.535 257.395V257.395L230.489 253.301C230.306 252.582 229.775 252.072 228.897 251.774V251.774C228.124 251.504 227.456 251.441 226.893 251.585 226.33 251.728 225.885 251.912 225.559 252.134 225.234 252.364 224.961 252.632 224.74 252.94V252.94C224.265 253.591 224.117 254.267 224.295 254.967V254.967ZM230.972 250.972V250.972C231.6 251.766 232.134 253.028 232.576 254.755V254.755C233.224 257.295 233.482 258.986 233.348 259.829V259.829C233.821 259.603 234.117 259.015 234.236 258.065V258.065C234.287 257.717 234.3 257.358 234.275 256.988 234.249 256.611 234.231 256.323 234.222 256.123 234.211 255.917 234.229 255.731 234.278 255.565V255.565C234.379 255.226 234.643 254.921 235.069 254.652V254.652C234.551 254.617 234.211 254.526 234.048 254.379V254.379C233.846 254.215 233.628 253.88 233.394 253.375 233.167 252.868 232.945 252.462 232.727 252.155 232.511 251.854 232.3 251.616 232.094 251.438V251.438C231.691 251.088 231.317 250.932 230.972 250.972ZM223.484 271.895L224.073 274.202C224.603 273.822 224.729 272.964 224.451 271.627V271.627C224.185 270.287 223.754 268.448 223.157 266.112 222.559 263.769 222.158 262.212 221.954 261.442 221.75 260.671 221.582 260.052 221.448 259.584V259.584C221.06 258.198 220.713 257.387 220.409 257.151 220.1 256.924 219.835 256.789 219.616 256.747V256.747C220.665 260.857 221.19 263.212 221.19 263.812V263.812C221.148 264.331 220.832 264.771 220.24 265.131V265.131C221.017 265.198 221.497 265.396 221.678 265.726V265.726C221.968 266.259 222.57 268.315 223.484 271.895ZM226.752 264.587L228.911 273.04C229.121 273.864 229.605 274.462 230.362 274.834V274.834C231.091 275.177 231.878 275.241 232.722 275.026V275.026C233.534 274.818 234.172 274.467 234.638 273.972V273.972C235.522 273.007 235.848 272.073 235.617 271.17V271.17L234.293 265.987C234.018 264.907 233.464 264.184 232.631 263.818V263.818C231.925 263.51 231.091 263.479 230.129 263.725V263.725ZM234.825 263.111V263.111C235.275 263.673 235.795 265.112 236.387 267.429V267.429C237.136 270.361 237.467 272.106 237.379 272.665V272.665C237.616 272.556 237.795 272.19 237.914 271.566 238.028 270.945 238.065 270.326 238.025 269.708 237.98 269.092 237.949 268.672 237.933 268.446 237.925 268.224 237.94 268.022 237.977 267.838V267.838C238.076 267.436 238.332 267.099 238.743 266.827V266.827C237.973 266.787 237.44 266.445 237.143 265.803 236.847 265.161 236.593 264.671 236.381 264.335 236.17 263.998 235.975 263.741 235.797 263.564V263.564C235.471 263.243 235.147 263.092 234.825 263.111ZM291.843 244.667V244.667C291.638 245.372 291.238 245.99 290.642 246.519 290.052 247.044 289.394 247.366 288.669 247.486V247.486C288.465 248.192 288.165 248.719 287.772 249.069 287.373 249.424 287.015 249.682 286.699 249.846 286.384 249.999 286.079 250.103 285.784 250.157V250.157C285.179 250.27 284.717 250.147 284.399 249.788V249.788C284.237 249.607 284.147 249.403 284.127 249.177V249.177C284.468 249.154 284.792 249.005 285.1 248.732V248.732C285.913 248.01 286.166 247.166 285.86 246.2V246.2L279.919 239.512C279.546 239.092 279.184 238.858 278.833 238.809V238.809C278.26 238.713 277.494 238.796 276.536 239.06V239.06C276.906 238.226 277.086 237.619 277.074 237.241V237.241C277.069 236.613 276.866 236.075 276.467 235.626V235.626L271.339 229.854C270.408 229.425 269.536 229.572 268.723 230.294V230.294C268.414 230.568 268.229 230.873 268.166 231.209V231.209C267.944 231.162 267.754 231.051 267.597 230.874 267.44 230.697 267.345 230.483 267.312 230.233 267.279 229.982 267.307 229.723 267.394 229.455V229.455C267.585 228.825 267.95 228.27 268.49 227.79 269.036 227.306 269.67 227.013 270.394 226.913V226.913C270.599 226.188 270.993 225.568 271.573 225.052 272.159 224.531 272.824 224.212 273.568 224.093V224.093C273.753 223.386 274.048 222.854 274.452 222.495 274.851 222.14 275.21 221.884 275.531 221.726 275.842 221.567 276.147 221.464 276.446 221.414V221.414C277.051 221.302 277.51 221.422 277.824 221.776V221.776C277.986 221.958 278.077 222.161 278.097 222.388V222.388C277.756 222.41 277.431 222.559 277.123 222.832V222.832C276.31 223.555 276.061 224.403 276.377 225.379V225.379L281.504 231.151C281.903 231.601 282.295 231.849 282.68 231.895V231.895C283.292 231.984 284.034 231.894 284.907 231.625V231.625C284.532 232.546 284.347 233.192 284.354 233.566V233.566C284.383 234.128 284.584 234.618 284.956 235.037V235.037L290.897 241.726C291.82 242.144 292.688 241.992 293.501 241.27V241.27C293.809 240.996 293.994 240.691 294.057 240.355V240.355C294.279 240.402 294.469 240.514 294.626 240.69 294.787 240.872 294.882 241.086 294.911 241.332 294.944 241.582 294.919 241.844 294.836 242.117V242.117C294.641 242.741 294.273 243.294 293.733 243.774 293.198 244.249 292.568 244.547 291.843 244.667ZM284.406 241.909L285.987 243.689C286.285 243.108 286.003 242.288 285.142 241.227V241.227C284.292 240.158 283.066 238.722 281.464 236.919 279.858 235.111 278.788 233.911 278.254 233.32 277.719 232.729 277.286 232.256 276.953 231.901V231.901C275.972 230.848 275.292 230.286 274.914 230.216 274.534 230.155 274.238 230.157 274.023 230.22V230.22C276.841 233.392 278.386 235.244 278.661 235.777V235.777C278.862 236.258 278.783 236.794 278.422 237.385V237.385C279.143 237.088 279.66 237.044 279.973 237.254V237.254C280.475 237.595 281.952 239.146 284.406 241.909ZM323.463 199.715V199.715C323.656 200.403 323.65 201.015 323.445 201.551 323.238 202.094 323.041 202.478 322.854 202.703 322.663 202.919 322.456 203.083 322.233 203.193V203.193C321.796 203.409 321.322 203.42 320.811 203.225V203.225C320.546 203.124 320.394 202.993 320.353 202.833V202.833C320.657 202.624 320.86 202.387 320.961 202.122 321.06 201.863 321.122 201.634 321.148 201.434 321.179 201.236 321.165 201.01 321.103 200.755V200.755C320.985 200.248 320.531 199.543 319.74 198.642V198.642C315.947 194.353 313.815 192.04 313.344 191.701V191.701C313.217 191.617 313.116 191.56 313.04 191.531V191.531C312.412 191.263 311.687 191.619 310.865 192.599V192.599C311.045 191.142 310.887 189.965 310.391 189.067V189.067C310.227 188.759 310.022 188.46 309.778 188.172V188.172L303.677 181.084C302.949 181.854 302.444 182.609 302.163 183.347 301.881 184.086 301.698 184.699 301.613 185.187 301.524 185.666 301.492 186.146 301.519 186.626V186.626C301.609 188.475 302.556 190.087 304.359 191.462V191.462C304.988 191.954 305.634 192.327 306.296 192.58 306.959 192.833 307.484 192.896 307.872 192.769V192.769C307.988 193.11 307.992 193.422 307.884 193.706 307.778 193.984 307.625 194.222 307.427 194.421 307.228 194.62 306.984 194.766 306.696 194.858V194.858C306.06 195.085 305.376 195.059 304.644 194.78 303.912 194.501 303.374 194.194 303.031 193.861V193.861C302.399 194.307 301.764 194.408 301.126 194.165 300.489 193.922 300.025 193.499 299.734 192.896V192.896C299.13 193.078 298.632 193.094 298.241 192.945 297.85 192.795 297.532 192.613 297.289 192.397 297.053 192.184 296.865 191.936 296.728 191.652V191.652C296.441 191.058 296.413 190.458 296.644 189.852V189.852C296.758 189.556 296.925 189.305 297.148 189.101V189.101C297.381 189.248 297.624 189.369 297.876 189.466V189.466C298.4 189.665 298.754 189.526 298.937 189.046V189.046C299.071 188.693 299.116 188.149 299.07 187.416V187.416C298.971 185.99 299.247 184.422 299.9 182.712 300.555 180.995 301.379 179.687 302.373 178.786V178.786C302.061 177.901 302.06 177.051 302.37 176.237 302.678 175.429 303.136 174.808 303.742 174.374V174.374C303.54 173.748 303.529 173.198 303.71 172.725 303.888 172.258 304.069 171.925 304.253 171.728 304.43 171.528 304.631 171.37 304.857 171.254V171.254C305.33 171.036 305.806 171.019 306.286 171.202V171.202C306.551 171.304 306.705 171.431 306.747 171.585V171.585C306.439 171.806 306.224 172.075 306.104 172.391 305.983 172.706 305.922 172.98 305.921 173.21 305.917 173.448 305.967 173.687 306.07 173.929V173.929C306.266 174.401 306.811 175.093 307.707 176.006V176.006C310.634 179.039 312.284 180.702 312.657 180.996 313.023 181.287 313.303 181.47 313.499 181.545V181.545C314.136 181.788 314.751 181.56 315.343 180.861V180.861C315.213 181.866 315.293 182.783 315.585 183.61 315.883 184.439 316.41 185.265 317.166 186.089V186.089L323.264 192.731C324.267 191.921 325.049 190.781 325.61 189.31V189.31C326.291 187.524 326.074 185.771 324.959 184.052V184.052C324.292 183.016 323.343 182.148 322.114 181.448V181.448C321.798 181.27 321.392 181.086 320.893 180.896 320.394 180.705 319.951 180.674 319.563 180.8V180.8C319.441 180.457 319.433 180.147 319.539 179.869 319.647 179.585 319.804 179.345 320.009 179.149 320.211 178.958 320.467 178.81 320.775 178.703V178.703C321.394 178.484 322.056 178.509 322.763 178.779 323.476 179.051 324.024 179.368 324.406 179.731V179.731C325.044 179.273 325.681 179.165 326.318 179.409 326.956 179.652 327.411 180.078 327.684 180.689V180.689C328.306 180.499 328.809 180.478 329.194 180.625 329.586 180.774 329.9 180.955 330.136 181.169 330.373 181.382 330.562 181.627 330.702 181.905V181.905C330.986 182.505 331.012 183.108 330.781 183.714V183.714C330.668 184.01 330.5 184.261 330.278 184.465V184.465C330.045 184.318 329.805 184.198 329.559 184.104V184.104C329.035 183.904 328.682 184.044 328.499 184.524V184.524C328.364 184.877 328.319 185.42 328.365 186.154V186.154C328.458 187.577 328.178 189.144 327.526 190.854 326.876 192.558 326.095 193.941 325.184 195.003V195.003C325.33 195.948 325.239 196.85 324.911 197.708 324.581 198.573 324.099 199.241 323.463 199.715ZM320.32 195.132L306.638 180.457C306.522 181.309 306.982 182.294 308.016 183.411V183.411L310.595 186.228C311.275 186.986 311.718 187.513 311.923 187.808 312.126 188.11 312.235 188.422 312.248 188.746 312.26 189.075 312.224 189.492 312.141 189.995V189.995C312.316 189.801 312.526 189.658 312.772 189.563 313.015 189.475 313.229 189.481 313.415 189.581 313.61 189.677 313.797 189.803 313.977 189.958 314.162 190.115 314.37 190.31 314.599 190.542 314.831 190.768 315.095 191.043 315.392 191.365V191.365L317.576 193.684C318.337 194.474 318.889 194.933 319.229 195.063V195.063C319.709 195.246 320.073 195.269 320.32 195.132ZM58.915 142.99C58.915 136.933 63.826 132.022 69.884 132.022 75.942 132.022 80.853 136.933 80.853 142.99 80.853 149.048 75.942 153.959 69.884 153.959 63.826 153.959 58.915 149.048 58.915 142.99ZM314.244 142.99C314.244 136.933 319.155 132.022 325.213 132.022 331.27 132.022 336.181 136.933 336.181 142.99 336.181 149.048 331.27 153.959 325.213 153.959 319.155 153.959 314.244 149.048 314.244 142.99Z" fill="#ffffff" data-fill-palette-color="primary"></path></svg></g></svg></g></svg></g></svg></g><defs></defs></svg><rect width="395.52" height="280" fill="none" stroke="none" visibility="hidden"></rect></g></svg></g></svg>